<svg width="89" height="96" viewBox="0 0 89 96" fill="none" xmlns="http://www.w3.org/2000/svg">
<g id="illu-idea-right">
<path id="Vector" d="M7.57446 69.0313C1.66077 60.2408 -0.906937 49.6221 0.336975 39.1009C1.58089 28.5796 6.55405 18.8525 14.3546 11.6834C22.1552 4.51433 32.2666 0.378057 42.8552 0.02467C53.4439 -0.328716 63.8086 3.12419 72.0698 9.75721C80.331 16.3902 85.9416 25.7641 87.8843 36.1791C89.8269 46.594 87.9729 57.3603 82.6585 66.5255C77.344 75.6907 68.9211 82.6479 58.917 86.1356C48.913 89.6232 37.9904 89.4103 28.1298 85.5355C27.4906 87.8172 26.2955 89.9048 24.6515 91.6114C23.0076 93.318 20.9661 94.5903 18.7099 95.3145C16.4536 96.0386 14.0531 96.1919 11.723 95.7608C9.39298 95.3296 7.20622 94.3274 5.35851 92.8438C3.5108 91.3603 2.05979 89.4417 1.1354 87.2598C0.211014 85.078 -0.157913 82.701 0.0616531 80.3415C0.281212 77.9821 1.08241 75.714 2.39352 73.7402C3.70463 71.7664 5.48473 70.1485 7.57446 69.0313Z" fill="#6C63FF"/>
<path id="Vector_2" d="M18.0289 35.4424H70.7291V39.603H18.0289V35.4424Z" fill="white"/>
<path id="Vector_3" d="M18.0289 42.3767H70.7291V46.5372H18.0289V42.3767Z" fill="white"/>
<path id="Vector_4" d="M18.0289 49.3109H70.7291V53.4714H18.0289V49.3109Z" fill="white"/>
</g>
</svg>
