<svg width="93" height="101" viewBox="0 0 93 101" fill="none" xmlns="http://www.w3.org/2000/svg">
<g id="illu-idea-left">
<path id="Vector" d="M85.0526 72.4305C91.2574 63.2071 93.9516 52.0656 92.6464 41.0262C91.3413 29.9869 86.1232 19.7808 77.9385 12.2587C69.7539 4.73662 59.1446 0.396672 48.0345 0.0258848C36.9245 -0.344903 26.0494 3.27802 17.3814 10.2377C8.71343 17.1973 2.82651 27.0328 0.788214 37.9605C-1.25008 48.8883 0.695219 60.1847 6.27134 69.8012C11.8475 79.4177 20.6852 86.7176 31.1818 90.377C41.6785 94.0364 53.1389 93.813 63.485 89.7473C64.1558 92.1414 65.4097 94.3318 67.1346 96.1225C68.8595 97.9131 71.0015 99.248 73.3688 100.008C75.7362 100.768 78.255 100.928 80.6997 100.476C83.1445 100.024 85.4389 98.9721 87.3776 97.4155C89.3163 95.8589 90.8388 93.8459 91.8087 91.5566C92.7786 89.2673 93.1657 86.7732 92.9353 84.2976C92.7049 81.822 91.8643 79.4422 90.4886 77.3712C89.113 75.3002 87.2452 73.6026 85.0526 72.4305Z" fill="#6C63FF"/>
<path id="Vector_2" d="M74.0833 37.1876H18.7881V41.553H74.0833V37.1876Z" fill="white"/>
<path id="Vector_3" d="M74.0833 44.4633H18.7881V48.8287H74.0833V44.4633Z" fill="white"/>
<path id="Vector_4" d="M74.0833 51.739H18.7881V56.1044H74.0833V51.739Z" fill="white"/>
</g>
</svg>
