<svg width="58" height="58" viewBox="0 0 58 58" fill="none" xmlns="http://www.w3.org/2000/svg">
<path d="M45.9167 0H12.0833C5.41092 0 0 5.41092 0 12.0833V45.9167C0 52.5891 5.41092 58 12.0833 58H45.9167C52.5915 58 58 52.5891 58 45.9167V12.0833C58 5.41092 52.5915 0 45.9167 0ZM38.6667 16.9167H34.017C32.5308 16.9167 31.4167 17.5257 31.4167 19.0651V21.75H38.6667L38.0915 29H31.4167V48.3333H24.1667V29H19.3333V21.75H24.1667V17.1028C24.1667 12.2163 26.738 9.66667 32.5308 9.66667H38.6667V16.9167Z" fill="url(#paint0_linear)"/>
<defs>
<linearGradient id="paint0_linear" x1="29" y1="0" x2="29" y2="58" gradientUnits="userSpaceOnUse">
<stop stop-color="#39A7D2"/>
<stop offset="1" stop-color="#39C1B4"/>
</linearGradient>
</defs>
</svg>
